<svg width="30" height="30" viewBox="0 0 30 30" fill="none" xmlns="http://www.w3.org/2000/svg">
<path d="M10.0343 24.1494C10.0343 24.2734 9.89516 24.3726 9.71976 24.3726C9.52016 24.3912 9.38105 24.292 9.38105 24.1494C9.38105 24.0253 9.52016 23.9261 9.69556 23.9261C9.87702 23.9075 10.0343 24.0067 10.0343 24.1494ZM8.15323 23.8703C8.11089 23.9943 8.23186 24.137 8.41331 24.1742C8.57057 24.2362 8.75202 24.1742 8.78831 24.0501C8.8246 23.9261 8.70968 23.7835 8.52823 23.7277C8.37097 23.6842 8.19556 23.7463 8.15323 23.8703ZM10.8266 23.7649C10.6512 23.8083 10.5302 23.9261 10.5484 24.0687C10.5665 24.1928 10.7238 24.2734 10.9052 24.23C11.0806 24.1866 11.2016 24.0687 11.1835 23.9447C11.1653 23.8269 11.002 23.7463 10.8266 23.7649ZM14.8065 0C6.41734 0 0 6.53038 0 15.1321C0 22.0098 4.22177 27.8952 10.252 29.9666C11.0262 30.1092 11.2984 29.6193 11.2984 29.2161C11.2984 28.8316 11.2802 26.7107 11.2802 25.4083C11.2802 25.4083 7.04637 26.3386 6.15726 23.5602C6.15726 23.5602 5.46774 21.7555 4.47581 21.2904C4.47581 21.2904 3.09073 20.3167 4.57258 20.3353C4.57258 20.3353 6.07863 20.4594 6.90726 21.9354C8.23185 24.3292 10.4516 23.6408 11.3165 23.2315C11.4556 22.2393 11.8488 21.5509 12.2843 21.1416C8.90323 20.757 5.49194 20.2547 5.49194 14.2887C5.49194 12.5832 5.95161 11.7274 6.91935 10.6359C6.7621 10.2328 6.24798 8.57073 7.07661 6.42495C8.34073 6.02184 11.25 8.0994 11.25 8.0994C12.4597 7.75211 13.7601 7.57226 15.0484 7.57226C16.3367 7.57226 17.6371 7.75211 18.8468 8.0994C18.8468 8.0994 21.756 6.01564 23.0202 6.42495C23.8488 8.57693 23.3347 10.2328 23.1774 10.6359C24.1452 11.7336 24.7379 12.5894 24.7379 14.2887C24.7379 20.2733 21.1754 20.7508 17.7944 21.1416C18.3508 21.6315 18.8226 22.5617 18.8226 24.0191C18.8226 26.1091 18.8044 28.6952 18.8044 29.2037C18.8044 29.6069 19.0827 30.0968 19.8508 29.9541C25.8992 27.8952 30 22.0098 30 15.1321C30 6.53038 23.1956 0 14.8065 0ZM5.87903 21.3896C5.8004 21.4516 5.81855 21.5943 5.92137 21.7121C6.01815 21.8113 6.15726 21.8547 6.23589 21.7741C6.31452 21.7121 6.29637 21.5695 6.19355 21.4516C6.09677 21.3524 5.95766 21.309 5.87903 21.3896ZM5.22581 20.8873C5.18347 20.9679 5.24395 21.0671 5.36492 21.1291C5.46169 21.1912 5.58266 21.1726 5.625 21.0857C5.66734 21.0051 5.60685 20.9059 5.48589 20.8439C5.36492 20.8067 5.26815 20.8253 5.22581 20.8873ZM7.18548 23.0951C7.08871 23.1757 7.125 23.3618 7.26411 23.4796C7.40323 23.6222 7.57863 23.6408 7.65726 23.5416C7.73589 23.461 7.6996 23.2749 7.57863 23.1571C7.44556 23.0145 7.26411 22.9959 7.18548 23.0951ZM6.49597 22.1834C6.39919 22.2455 6.39919 22.4067 6.49597 22.5493C6.59274 22.692 6.75605 22.754 6.83468 22.692C6.93145 22.6114 6.93145 22.4501 6.83468 22.3075C6.75 22.1648 6.59274 22.1028 6.49597 22.1834Z" fill="#3D3D3D"/>
</svg>
