<svg width="30" height="30" viewBox="0 0 30 30" fill="none" xmlns="http://www.w3.org/2000/svg">
<path d="M25.3125 18.7449H23.4375C23.1889 18.7449 22.9504 18.8436 22.7746 19.0194C22.5988 19.1952 22.5 19.4336 22.5 19.6821V26.2428H3.75V7.49796H12.1875C12.4361 7.49796 12.6746 7.39921 12.8504 7.22344C13.0262 7.04767 13.125 6.80928 13.125 6.56071V4.68622C13.125 4.43765 13.0262 4.19926 12.8504 4.02349C12.6746 3.84772 12.4361 3.74898 12.1875 3.74898H2.8125C2.06658 3.74898 1.35121 4.04521 0.823762 4.57252C0.296316 5.09982 0 5.81499 0 6.56071L0 27.1801C0 27.9258 0.296316 28.641 0.823762 29.1683C1.35121 29.6956 2.06658 29.9918 2.8125 29.9918H23.4375C24.1834 29.9918 24.8988 29.6956 25.4262 29.1683C25.9537 28.641 26.25 27.9258 26.25 27.1801V19.6821C26.25 19.4336 26.1512 19.1952 25.9754 19.0194C25.7996 18.8436 25.5611 18.7449 25.3125 18.7449ZM28.5938 0H21.0938C19.8416 0 19.2158 1.51775 20.0977 2.40169L22.1912 4.49467L7.91016 18.7666C7.77906 18.8972 7.67504 19.0524 7.60406 19.2233C7.53308 19.3941 7.49655 19.5774 7.49655 19.7624C7.49655 19.9474 7.53308 20.1306 7.60406 20.3015C7.67504 20.4724 7.77906 20.6276 7.91016 20.7582L9.23848 22.0838C9.36912 22.2149 9.52436 22.3189 9.69529 22.3898C9.86623 22.4608 10.0495 22.4973 10.2346 22.4973C10.4197 22.4973 10.6029 22.4608 10.7738 22.3898C10.9448 22.3189 11.1 22.2149 11.2307 22.0838L25.5047 7.80959L27.5977 9.89964C28.4766 10.7783 30 10.1632 30 8.90382V1.40587C30 1.03301 29.8518 0.67542 29.5881 0.411769C29.3244 0.148118 28.9667 0 28.5938 0Z" fill="#3D3D3D"/>
</svg>
